<?xml version="1.0" encoding="UTF-8" standalone="no"?>
<!DOCTYPE svg PUBLIC "-//W3C//DTD SVG 1.1//EN" "http://www.w3.org/Graphics/SVG/1.1/DTD/svg11.dtd">
<svg width="100%" height="100%" viewBox="0 0 512 512" version="1.1" xmlns="http://www.w3.org/2000/svg" xmlns:xlink="http://www.w3.org/1999/xlink" xml:space="preserve" xmlns:serif="http://www.serif.com/" style="fill-rule:evenodd;clip-rule:evenodd;stroke-linecap:round;stroke-linejoin:round;">
    <g id="rainbow.svg" transform="matrix(2.47673,0,0,2.47673,353.249,359.537)">
        <g transform="matrix(1,0,0,1,-61.44,-30.53)">
            <clipPath id="_clip1">
                <rect x="0" y="0" width="122.88" height="61.06"/>
            </clipPath>
            <g clip-path="url(#_clip1)">
                <g>
                    <path d="M61.49,16.21C73.88,16.21 85.09,21.23 93.2,29.35C101.32,37.47 106.34,48.68 106.34,61.06L99.28,61.06C99.28,50.62 95.05,41.17 88.21,34.34C81.37,27.5 71.92,23.27 61.49,23.27C51.05,23.27 41.6,27.5 34.77,34.34C27.93,41.17 23.7,50.62 23.7,61.06L16.64,61.06C16.64,48.67 21.66,37.46 29.78,29.35C37.89,21.23 49.11,16.21 61.49,16.21Z" style="fill:rgb(242,0,0);fill-rule:nonzero;"/>
                    <path d="M61.49,23.18C71.95,23.18 81.42,27.42 88.28,34.28C95.14,41.14 99.38,50.61 99.38,61.07L93.42,61.07C93.42,52.26 89.85,44.27 84.07,38.5C78.29,32.72 70.31,29.15 61.5,29.15C52.69,29.15 44.7,32.72 38.93,38.5C33.15,44.28 29.58,52.26 29.58,61.07L23.62,61.07C23.62,50.61 27.86,41.14 34.72,34.28C41.56,27.42 51.03,23.18 61.49,23.18Z" style="fill:rgb(255,106,0);fill-rule:nonzero;"/>
                    <path d="M61.49,29.06C70.33,29.06 78.33,32.64 84.12,38.43C89.91,44.22 93.49,52.22 93.49,61.06L88.46,61.06C88.46,53.61 85.44,46.87 80.56,41.99C75.68,37.11 68.94,34.09 61.49,34.09C54.04,34.09 47.3,37.11 42.42,41.99C37.54,46.87 34.52,53.61 34.52,61.06L29.49,61.06C29.49,52.22 33.07,44.22 38.86,38.43C44.66,32.64 52.66,29.06 61.49,29.06Z" style="fill:rgb(253,238,33);fill-rule:nonzero;"/>
                    <path d="M61.49,34.03C68.95,34.03 75.71,37.05 80.6,41.95C85.49,46.84 88.52,53.6 88.52,61.06L84.27,61.06C84.27,54.77 81.72,49.08 77.6,44.96C73.48,40.84 67.79,38.29 61.5,38.29C55.21,38.29 49.52,40.84 45.4,44.96C41.28,49.08 38.73,54.77 38.73,61.06L34.48,61.06C34.48,53.6 37.5,46.84 42.4,41.95C47.27,37.06 54.03,34.03 61.49,34.03Z" style="fill:rgb(110,199,0);fill-rule:nonzero;"/>
                    <path d="M61.49,38.23C67.79,38.23 73.5,40.78 77.63,44.92C81.76,49.05 84.32,54.76 84.32,61.06L80.73,61.06C80.73,55.75 78.58,50.94 75.1,47.46C71.62,43.98 66.81,41.83 61.5,41.83C56.19,41.83 51.38,43.98 47.9,47.46C44.42,50.94 42.27,55.75 42.27,61.06L38.68,61.06C38.68,54.76 41.23,49.05 45.37,44.92C49.48,40.79 55.19,38.23 61.49,38.23Z" style="fill:rgb(41,170,227);fill-rule:nonzero;"/>
                    <path d="M61.49,41.78C66.81,41.78 71.63,43.94 75.12,47.43C78.61,50.92 80.77,55.74 80.77,61.06L77.74,61.06C77.74,56.57 75.92,52.51 72.98,49.57C70.04,46.63 65.98,44.81 61.49,44.81C57,44.81 52.94,46.63 50,49.57C47.06,52.51 45.24,56.57 45.24,61.06L42.21,61.06C42.21,55.74 44.37,50.91 47.86,47.43C51.35,43.94 56.17,41.78 61.49,41.78Z" style="fill:rgb(61,68,219);fill-rule:nonzero;"/>
                    <path d="M61.49,44.77C65.99,44.77 70.06,46.59 73.01,49.54C75.96,52.49 77.78,56.56 77.78,61.06L75.22,61.06C75.22,57.27 73.68,53.84 71.2,51.36C68.72,48.88 65.29,47.34 61.5,47.34C57.71,47.34 54.28,48.88 51.8,51.36C49.32,53.84 47.78,57.27 47.78,61.06L45.22,61.06C45.22,56.56 47.04,52.49 49.99,49.54C52.92,46.6 56.99,44.77 61.49,44.77Z" style="fill:rgb(131,39,222);fill-rule:nonzero;"/>
                    <path d="M11.16,44.72C12.96,45.2 14.04,47.06 13.56,48.86C13.08,50.66 11.22,51.74 9.42,51.26L2.52,49.41C0.72,48.93 -0.36,47.07 0.12,45.27C0.6,43.47 2.46,42.39 4.26,42.88L11.16,44.72Z" style="fill:rgb(242,0,0);fill-rule:nonzero;"/>
                    <path d="M26.29,21.8C27.61,23.12 27.61,25.27 26.29,26.59C24.97,27.91 22.82,27.91 21.5,26.59L16.45,21.54C15.13,20.22 15.13,18.07 16.45,16.75C17.77,15.43 19.92,15.43 21.24,16.75L26.29,21.8Z" style="fill:rgb(255,106,0);fill-rule:nonzero;"/>
                    <path d="M50.85,9.52C51.33,11.32 50.26,13.18 48.46,13.66C46.66,14.14 44.8,13.07 44.32,11.27L42.47,4.37C41.99,2.57 43.06,0.71 44.86,0.23C46.66,-0.25 48.52,0.82 49,2.62L50.85,9.52Z" style="fill:rgb(255,174,0);fill-rule:nonzero;"/>
                    <path d="M78.27,11.16C77.79,12.96 75.93,14.04 74.13,13.56C72.33,13.08 71.25,11.22 71.74,9.42L73.59,2.52C74.07,0.72 75.93,-0.36 77.73,0.12C79.53,0.6 80.61,2.46 80.12,4.26L78.27,11.16Z" style="fill:rgb(58,181,74);fill-rule:nonzero;"/>
                    <path d="M101.19,26.29C99.87,27.61 97.72,27.61 96.4,26.29C95.08,24.97 95.08,22.82 96.4,21.5L101.45,16.45C102.77,15.13 104.92,15.13 106.24,16.45C107.56,17.77 107.56,19.92 106.24,21.24L101.19,26.29Z" style="fill:rgb(41,170,227);fill-rule:nonzero;"/>
                    <path d="M113.47,50.85C111.67,51.33 109.81,50.26 109.33,48.45C108.85,46.65 109.92,44.79 111.73,44.31L118.63,42.46C120.43,41.98 122.29,43.05 122.77,44.86C123.25,46.66 122.18,48.52 120.37,49L113.47,50.85Z" style="fill:rgb(102,45,145);fill-rule:nonzero;"/>
                </g>
            </g>
        </g>
    </g>
    <g id="laugh.svg" transform="matrix(2.1619,0,0,2.1619,256,151.095)">
        <g transform="matrix(1,0,0,1,-61.44,-61.44)">
            <g>
                <path d="M45.54,2.11C78.31,-6.67 111.99,12.78 120.77,45.54C129.55,78.31 110.1,111.99 77.34,120.77C44.57,129.55 10.89,110.1 2.11,77.34C-6.67,44.57 12.77,10.89 45.54,2.11Z" style="fill:rgb(251,212,51);"/>
                <path d="M41.89,27.86C46.19,27.86 49.67,32.77 49.67,38.83C49.67,44.89 46.19,49.8 41.89,49.8C37.59,49.8 34.11,44.89 34.11,38.83C34.11,32.77 37.59,27.86 41.89,27.86ZM28.55,67.12C45.23,66.6 79.56,67.41 94.33,67.08C94.33,106.85 28.55,110.65 28.55,67.12ZM80.99,27.86C85.29,27.86 88.77,32.77 88.77,38.83C88.77,44.89 85.29,49.8 80.99,49.8C76.69,49.8 73.21,44.89 73.21,38.83C73.21,32.77 76.69,27.86 80.99,27.86Z" style="fill:rgb(20,21,24);"/>
                <path d="M28.55,67.12C45.23,65.6 79.56,66.45 94.33,67.08C94.52,81.23 28.75,81.05 28.55,67.12Z" style="fill:white;"/>
                <path d="M38.6,90.95C49.71,100.56 70.44,100.94 82.9,90.95C76.12,83.24 68.72,83 60.51,89.07C52.05,82.3 46.38,82.11 38.6,90.95Z" style="fill:rgb(255,0,0);"/>
            </g>
        </g>
    </g>
    <g id="ice-cream-color.svg" transform="matrix(1.82585,0,0,1.82585,95.9265,377.288)">
        <g transform="matrix(1,0,0,1,-30.975,-61.44)">
            <clipPath id="_clip2">
                <rect x="0" y="0" width="61.95" height="122.88"/>
            </clipPath>
            <g clip-path="url(#_clip2)">
                <path d="M44,20.38C44,11.38 27.8,10.75 37.22,1.91C25.78,-2.47 13.66,5.24 16.31,19.46C7.68,20.78 4,29.62 8.36,38.12C-1.11,40.74 -3.38,50.7 6,58.62L55.29,58.62C66.49,53 62.36,37 51.78,34.79C53.73,26.47 50.32,22.3 44,20.38Z" style="fill:rgb(239,108,147);fill-rule:nonzero;"/>
                <path d="M44,20.38C44.002,19.651 43.89,18.925 43.67,18.23C41.643,20.43 39.129,22.126 36.33,23.18C34.221,24.017 31.869,24.017 29.76,23.18C29.547,23.101 29.321,23.061 29.094,23.061C28.04,23.061 27.174,23.927 27.174,24.981C27.174,25.693 27.57,26.349 28.2,26.68C31.186,27.934 34.543,27.991 37.57,26.84C40.818,25.631 43.752,23.702 46.15,21.2C45.451,20.888 44.733,20.621 44,20.4L44,20.38Z" style="fill-rule:nonzero;"/>
                <path d="M55.35,36.16C54.241,35.515 53.036,35.053 51.78,34.79C51.96,34 52.1,33.24 52.19,32.52C49.11,33.294 46.12,34.39 43.27,35.79C36.89,38.62 29.61,41.85 23.44,38.71C23.188,38.594 22.913,38.533 22.635,38.533C21.582,38.533 20.715,39.4 20.715,40.453C20.715,41.148 21.093,41.791 21.7,42.13C29.49,46.13 37.7,42.48 44.82,39.31C48.95,37.47 52.71,35.81 55.3,36.15L55.35,36.16Z" style="fill-rule:nonzero;"/>
                <path d="M26.26,122.88L4.11,63.13C23.85,62.23 33.5,63.28 55.6,63.13L32.45,122.88L26.26,122.88Z" style="fill:rgb(248,175,70);fill-rule:nonzero;"/>
                <path d="M26,109.12L23.83,103.25L37.69,100.11L34.99,107.11L25.99,109.11L26,109.12ZM21.54,97.12L19.37,91.26L43.23,85.84L40.53,92.84L21.53,97.15L21.54,97.12ZM17.09,85.12L14.87,79.2L48.73,71.52L46.03,78.52L17.03,85.1L17.09,85.12Z" style="fill:rgb(250,200,130);fill-rule:nonzero;"/>
                <path d="M38.12,0C38.123,-0 38.127,-0 38.13,-0C43.468,-0 47.86,4.392 47.86,9.73C47.86,15.068 43.468,19.46 38.13,19.46C32.793,19.46 28.4,15.068 28.4,9.73C28.4,7.151 29.426,4.674 31.25,2.85C33.069,1.025 35.543,-0.002 38.12,0Z" style="fill-rule:nonzero;"/>
                <path d="M38.12,1.92C42.399,1.92 45.92,5.441 45.92,9.72C45.92,13.999 42.399,17.52 38.12,17.52C33.841,17.52 30.32,13.999 30.32,9.72C30.32,5.441 33.841,1.92 38.12,1.92Z" style="fill:rgb(238,63,105);fill-rule:nonzero;"/>
                <path d="M22.3,13.83C23.397,13.83 24.3,14.733 24.3,15.83C24.3,16.927 23.397,17.83 22.3,17.83C21.203,17.83 20.3,16.927 20.3,15.83C20.3,14.733 21.203,13.83 22.3,13.83Z" style="fill-rule:nonzero;"/>
                <path d="M29.87,47.08L29.88,47.08C30.643,47.08 31.27,47.707 31.27,48.47C31.27,49.232 30.643,49.86 29.88,49.86C29.117,49.86 28.49,49.233 28.49,48.47C28.49,48.467 28.49,48.463 28.49,48.46C28.49,47.703 29.113,47.08 29.87,47.08Z" style="fill-rule:nonzero;"/>
                <path d="M23.95,50.62L25.72,52.72" style="fill:none;fill-rule:nonzero;stroke:white;stroke-width:1.54px;"/>
                <path d="M51.65,46C52.413,46 53.04,46.627 53.04,47.39C53.04,48.153 52.412,48.78 51.65,48.78C50.887,48.78 50.26,48.153 50.26,47.39L50.26,47.38C50.26,46.623 50.883,46 51.64,46C51.643,46 51.647,46 51.65,46Z" style="fill-rule:nonzero;"/>
                <path d="M45.73,49.5L47.5,51.6" style="fill:none;fill-rule:nonzero;stroke:white;stroke-width:1.54px;"/>
                <path d="M12.52,44.64C13.277,44.64 13.9,45.263 13.9,46.02C13.9,46.777 13.277,47.4 12.52,47.4C11.763,47.4 11.14,46.777 11.14,46.02C11.14,46.013 11.14,46.007 11.14,46C11.14,45.243 11.763,44.62 12.52,44.62L12.52,44.64Z" style="fill-rule:nonzero;"/>
                <path d="M6.61,48.17L8.37,50.27" style="fill:none;fill-rule:nonzero;stroke:white;stroke-width:1.54px;"/>
            </g>
        </g>
    </g>
</svg>
