<?xml version="1.0" encoding="UTF-8" standalone="no"?>
<svg
   width="100%"
   height="100%"
   viewBox="0 0 512 512"
   version="1.1"
   xml:space="preserve"
   style="fill-rule:evenodd;clip-rule:evenodd;stroke-linecap:round;stroke-linejoin:round;"
   id="svg87"
   xmlns="http://www.w3.org/2000/svg"
   xmlns:svg="http://www.w3.org/2000/svg"><defs
   id="defs91" />
    <g
   id="rainbow.svg"
   transform="matrix(2.8010109,0,0,2.8010109,332.21783,387.38716)">
        
    <path
   d="m 61.49,16.21 c 12.39,0 23.6,5.02 31.71,13.14 8.12,8.12 13.14,19.33 13.14,31.71 H 99.28 C 99.28,50.62 95.05,41.17 88.21,34.34 81.37,27.5 71.92,23.27 61.49,23.27 51.05,23.27 41.6,27.5 34.77,34.34 27.93,41.17 23.7,50.62 23.7,61.06 h -7.06 c 0,-12.39 5.02,-23.6 13.14,-31.71 8.11,-8.12 19.33,-13.14 31.71,-13.14 z"
   style="clip-rule:evenodd;fill:#f20000;fill-rule:nonzero;stroke-linecap:round;stroke-linejoin:round"
   id="path5"
   transform="translate(-61.44,-30.530001)" /><path
   d="m 61.49,23.18 c 10.46,0 19.93,4.24 26.79,11.1 6.86,6.86 11.1,16.33 11.1,26.79 h -5.96 c 0,-8.81 -3.57,-16.8 -9.35,-22.57 -5.78,-5.78 -13.76,-9.35 -22.57,-9.35 -8.81,0 -16.8,3.57 -22.57,9.35 -5.78,5.78 -9.35,13.76 -9.35,22.57 h -5.96 c 0,-10.46 4.24,-19.93 11.1,-26.79 6.84,-6.86 16.31,-11.1 26.77,-11.1 z"
   style="clip-rule:evenodd;fill:#ff6a00;fill-rule:nonzero;stroke-linecap:round;stroke-linejoin:round"
   id="path7"
   transform="translate(-61.44,-30.530001)" /><path
   d="m 61.49,29.06 c 8.84,0 16.84,3.58 22.63,9.37 5.79,5.79 9.37,13.79 9.37,22.63 h -5.03 c 0,-7.45 -3.02,-14.19 -7.9,-19.07 -4.88,-4.88 -11.62,-7.9 -19.07,-7.9 -7.45,0 -14.19,3.02 -19.07,7.9 -4.88,4.88 -7.9,11.62 -7.9,19.07 h -5.03 c 0,-8.84 3.58,-16.84 9.37,-22.63 5.8,-5.79 13.8,-9.37 22.63,-9.37 z"
   style="clip-rule:evenodd;fill:#fdee21;fill-rule:nonzero;stroke-linecap:round;stroke-linejoin:round"
   id="path9"
   transform="translate(-61.44,-30.530001)" /><path
   d="m 61.49,34.03 c 7.46,0 14.22,3.02 19.11,7.92 4.89,4.89 7.92,11.65 7.92,19.11 h -4.25 c 0,-6.29 -2.55,-11.98 -6.67,-16.1 -4.12,-4.12 -9.81,-6.67 -16.1,-6.67 -6.29,0 -11.98,2.55 -16.1,6.67 -4.12,4.12 -6.67,9.81 -6.67,16.1 h -4.25 c 0,-7.46 3.02,-14.22 7.92,-19.11 4.87,-4.89 11.63,-7.92 19.09,-7.92 z"
   style="clip-rule:evenodd;fill:#6ec700;fill-rule:nonzero;stroke-linecap:round;stroke-linejoin:round"
   id="path11"
   transform="translate(-61.44,-30.530001)" /><path
   d="m 61.49,38.23 c 6.3,0 12.01,2.55 16.14,6.69 4.13,4.13 6.69,9.84 6.69,16.14 h -3.59 c 0,-5.31 -2.15,-10.12 -5.63,-13.6 -3.48,-3.48 -8.29,-5.63 -13.6,-5.63 -5.31,0 -10.12,2.15 -13.6,5.63 -3.48,3.48 -5.63,8.29 -5.63,13.6 h -3.59 c 0,-6.3 2.55,-12.01 6.69,-16.14 4.11,-4.13 9.82,-6.69 16.12,-6.69 z"
   style="clip-rule:evenodd;fill:#29aae3;fill-rule:nonzero;stroke-linecap:round;stroke-linejoin:round"
   id="path13"
   transform="translate(-61.44,-30.530001)" /><path
   d="m 61.49,41.78 c 5.32,0 10.14,2.16 13.63,5.65 3.49,3.49 5.65,8.31 5.65,13.63 h -3.03 c 0,-4.49 -1.82,-8.55 -4.76,-11.49 -2.94,-2.94 -7,-4.76 -11.49,-4.76 -4.49,0 -8.55,1.82 -11.49,4.76 -2.94,2.94 -4.76,7 -4.76,11.49 h -3.03 c 0,-5.32 2.16,-10.15 5.65,-13.63 3.49,-3.49 8.31,-5.65 13.63,-5.65 z"
   style="clip-rule:evenodd;fill:#3d44db;fill-rule:nonzero;stroke-linecap:round;stroke-linejoin:round"
   id="path15"
   transform="translate(-61.44,-30.530001)" /><path
   d="m 61.49,44.77 c 4.5,0 8.57,1.82 11.52,4.77 2.95,2.95 4.77,7.02 4.77,11.52 h -2.56 c 0,-3.79 -1.54,-7.22 -4.02,-9.7 -2.48,-2.48 -5.91,-4.02 -9.7,-4.02 -3.79,0 -7.22,1.54 -9.7,4.02 -2.48,2.48 -4.02,5.91 -4.02,9.7 h -2.56 c 0,-4.5 1.82,-8.57 4.77,-11.52 2.93,-2.94 7,-4.77 11.5,-4.77 z"
   style="clip-rule:evenodd;fill:#8327de;fill-rule:nonzero;stroke-linecap:round;stroke-linejoin:round"
   id="path17"
   transform="translate(-61.44,-30.530001)" /><path
   d="m 11.16,44.72 c 1.8,0.48 2.88,2.34 2.4,4.14 -0.48,1.8 -2.34,2.88 -4.14,2.4 l -6.9,-1.85 c -1.8,-0.48 -2.88,-2.34 -2.4,-4.14 0.48,-1.8 2.34,-2.88 4.14,-2.39 z"
   style="clip-rule:evenodd;fill:#f20000;fill-rule:nonzero;stroke-linecap:round;stroke-linejoin:round"
   id="path19"
   transform="translate(-61.44,-30.530001)" /><path
   d="m 26.29,21.8 c 1.32,1.32 1.32,3.47 0,4.79 -1.32,1.32 -3.47,1.32 -4.79,0 l -5.05,-5.05 c -1.32,-1.32 -1.32,-3.47 0,-4.79 1.32,-1.32 3.47,-1.32 4.79,0 z"
   style="clip-rule:evenodd;fill:#ff6a00;fill-rule:nonzero;stroke-linecap:round;stroke-linejoin:round"
   id="path21"
   transform="translate(-61.44,-30.530001)" /><path
   d="m 50.85,9.52 c 0.48,1.8 -0.59,3.66 -2.39,4.14 -1.8,0.48 -3.66,-0.59 -4.14,-2.39 l -1.85,-6.9 c -0.48,-1.8 0.59,-3.66 2.39,-4.14 1.8,-0.48 3.66,0.59 4.14,2.39 z"
   style="clip-rule:evenodd;fill:#ffae00;fill-rule:nonzero;stroke-linecap:round;stroke-linejoin:round"
   id="path23"
   transform="translate(-61.44,-30.530001)" /><path
   d="m 78.27,11.16 c -0.48,1.8 -2.34,2.88 -4.14,2.4 -1.8,-0.48 -2.88,-2.34 -2.39,-4.14 l 1.85,-6.9 c 0.48,-1.8 2.34,-2.88 4.14,-2.4 1.8,0.48 2.88,2.34 2.39,4.14 z"
   style="clip-rule:evenodd;fill:#3ab54a;fill-rule:nonzero;stroke-linecap:round;stroke-linejoin:round"
   id="path25"
   transform="translate(-61.44,-30.530001)" /><path
   d="m 101.19,26.29 c -1.32,1.32 -3.47,1.32 -4.79,0 -1.32,-1.32 -1.32,-3.47 0,-4.79 l 5.05,-5.05 c 1.32,-1.32 3.47,-1.32 4.79,0 1.32,1.32 1.32,3.47 0,4.79 z"
   style="clip-rule:evenodd;fill:#29aae3;fill-rule:nonzero;stroke-linecap:round;stroke-linejoin:round"
   id="path27"
   transform="translate(-61.44,-30.530001)" /><path
   d="m 113.47,50.85 c -1.8,0.48 -3.66,-0.59 -4.14,-2.4 -0.48,-1.8 0.59,-3.66 2.4,-4.14 l 6.9,-1.85 c 1.8,-0.48 3.66,0.59 4.14,2.4 0.48,1.8 -0.59,3.66 -2.4,4.14 z"
   style="clip-rule:evenodd;fill:#662d91;fill-rule:nonzero;stroke-linecap:round;stroke-linejoin:round"
   id="path29"
   transform="translate(-61.44,-30.530001)" /></g>
    <g
   id="laugh.svg"
   transform="matrix(2.1619,0,0,2.1619,256,151.095)">
        <g
   transform="matrix(1,0,0,1,-61.44,-61.44)"
   id="g48">
            <g
   id="g46">
                <path
   d="M45.54,2.11C78.31,-6.67 111.99,12.78 120.77,45.54C129.55,78.31 110.1,111.99 77.34,120.77C44.57,129.55 10.89,110.1 2.11,77.34C-6.67,44.57 12.77,10.89 45.54,2.11Z"
   style="fill:rgb(251,212,51);"
   id="path38" />
                <path
   d="M41.89,27.86C46.19,27.86 49.67,32.77 49.67,38.83C49.67,44.89 46.19,49.8 41.89,49.8C37.59,49.8 34.11,44.89 34.11,38.83C34.11,32.77 37.59,27.86 41.89,27.86ZM28.55,67.12C45.23,66.6 79.56,67.41 94.33,67.08C94.33,106.85 28.55,110.65 28.55,67.12ZM80.99,27.86C85.29,27.86 88.77,32.77 88.77,38.83C88.77,44.89 85.29,49.8 80.99,49.8C76.69,49.8 73.21,44.89 73.21,38.83C73.21,32.77 76.69,27.86 80.99,27.86Z"
   style="fill:rgb(20,21,24);"
   id="path40" />
                <path
   d="M28.55,67.12C45.23,65.6 79.56,66.45 94.33,67.08C94.52,81.23 28.75,81.05 28.55,67.12Z"
   style="fill:white;"
   id="path42" />
                <path
   d="M38.6,90.95C49.71,100.56 70.44,100.94 82.9,90.95C76.12,83.24 68.72,83 60.51,89.07C52.05,82.3 46.38,82.11 38.6,90.95Z"
   style="fill:rgb(255,0,0);"
   id="path44" />
            </g>
        </g>
    </g>
    <g
   id="ice-cream-color.svg"
   transform="matrix(1.82585,0,0,1.82585,95.9265,377.288)"
   style="display:inline">
        
    <path
   d="M 44,20.38 C 44,11.38 27.8,10.75 37.22,1.91 25.78,-2.47 13.66,5.24 16.31,19.46 7.68,20.78 4,29.62 8.36,38.12 -1.11,40.74 -3.38,50.7 6,58.62 H 55.29 C 66.49,53 62.36,37 51.78,34.79 53.73,26.47 50.32,22.3 44,20.38 Z"
   style="clip-rule:evenodd;display:inline;fill:#ef6c93;fill-rule:nonzero;stroke-linecap:round;stroke-linejoin:round"
   id="path54"
   transform="translate(-30.975,-61.439998)" /><path
   d="m 44,20.38 c 0.002,-0.729 -0.11,-1.455 -0.33,-2.15 -2.027,2.2 -4.541,3.896 -7.34,4.95 -2.109,0.837 -4.461,0.837 -6.57,0 -0.213,-0.079 -0.439,-0.119 -0.666,-0.119 -1.054,0 -1.92,0.866 -1.92,1.92 0,0.712 0.396,1.368 1.026,1.699 2.986,1.254 6.343,1.311 9.37,0.16 3.248,-1.209 6.182,-3.138 8.58,-5.64 C 45.451,20.888 44.733,20.621 44,20.4 Z"
   style="clip-rule:evenodd;fill-rule:nonzero;stroke-linecap:round;stroke-linejoin:round"
   id="path56"
   transform="translate(-30.975,-61.439998)" /><path
   d="m 55.35,36.16 c -1.109,-0.645 -2.314,-1.107 -3.57,-1.37 0.18,-0.79 0.32,-1.55 0.41,-2.27 -3.08,0.774 -6.07,1.87 -8.92,3.27 -6.38,2.83 -13.66,6.06 -19.83,2.92 -0.252,-0.116 -0.527,-0.177 -0.805,-0.177 -1.053,0 -1.92,0.867 -1.92,1.92 0,0.695 0.378,1.338 0.985,1.677 7.79,4 16,0.35 23.12,-2.82 4.13,-1.84 7.89,-3.5 10.48,-3.16 z"
   style="clip-rule:evenodd;fill-rule:nonzero;stroke-linecap:round;stroke-linejoin:round"
   id="path58"
   transform="translate(-30.975,-61.439998)" /><path
   d="M 26.26,122.88 4.11,63.13 c 19.74,-0.9 29.39,0.15 51.49,0 l -23.15,59.75 z"
   style="clip-rule:evenodd;fill:#f8af46;fill-rule:nonzero;stroke-linecap:round;stroke-linejoin:round"
   id="path60"
   transform="translate(-30.975,-61.439998)" /><path
   d="m 26,109.12 -2.17,-5.87 13.86,-3.14 -2.7,7 -9,2 z m -4.46,-12 -2.17,-5.86 23.86,-5.42 -2.7,7 -19,4.31 z m -4.45,-12 -2.22,-5.92 33.86,-7.68 -2.7,7 -29,6.58 z"
   style="clip-rule:evenodd;fill:#fac882;fill-rule:nonzero;stroke-linecap:round;stroke-linejoin:round"
   id="path62"
   transform="translate(-30.975,-61.439998)" /><path
   d="m 38.12,0 c 0.003,0 0.007,0 0.01,0 5.338,0 9.73,4.392 9.73,9.73 0,5.338 -4.392,9.73 -9.73,9.73 -5.337,0 -9.73,-4.392 -9.73,-9.73 0,-2.579 1.026,-5.056 2.85,-6.88 1.819,-1.825 4.293,-2.852 6.87,-2.85 z"
   style="clip-rule:evenodd;fill-rule:nonzero;stroke-linecap:round;stroke-linejoin:round"
   id="path64"
   transform="translate(-30.975,-61.439998)" /><path
   d="m 38.12,1.92 c 4.279,0 7.8,3.521 7.8,7.8 0,4.279 -3.521,7.8 -7.8,7.8 -4.279,0 -7.8,-3.521 -7.8,-7.8 0,-4.279 3.521,-7.8 7.8,-7.8 z"
   style="clip-rule:evenodd;fill:#ee3f69;fill-rule:nonzero;stroke-linecap:round;stroke-linejoin:round"
   id="path66"
   transform="translate(-30.975,-61.439998)" /><path
   d="m 22.3,13.83 c 1.097,0 2,0.903 2,2 0,1.097 -0.903,2 -2,2 -1.097,0 -2,-0.903 -2,-2 0,-1.097 0.903,-2 2,-2 z"
   style="clip-rule:evenodd;fill-rule:nonzero;stroke-linecap:round;stroke-linejoin:round"
   id="path68"
   transform="translate(-30.975,-61.439998)" /><path
   d="m 29.87,47.08 h 0.01 c 0.763,0 1.39,0.627 1.39,1.39 0,0.762 -0.627,1.39 -1.39,1.39 -0.763,0 -1.39,-0.627 -1.39,-1.39 0,-0.003 0,-0.007 0,-0.01 0,-0.757 0.623,-1.38 1.38,-1.38 z"
   style="clip-rule:evenodd;fill-rule:nonzero;stroke-linecap:round;stroke-linejoin:round"
   id="path70"
   transform="translate(-30.975,-61.439998)" /><path
   d="m 23.95,50.62 1.77,2.1"
   style="clip-rule:evenodd;fill:none;fill-rule:nonzero;stroke:#ffffff;stroke-width:1.54px;stroke-linecap:round;stroke-linejoin:round"
   id="path72"
   transform="translate(-30.975,-61.439998)" /><path
   d="m 51.65,46 c 0.763,0 1.39,0.627 1.39,1.39 0,0.763 -0.628,1.39 -1.39,1.39 -0.763,0 -1.39,-0.627 -1.39,-1.39 v -0.01 c 0,-0.757 0.623,-1.38 1.38,-1.38 0.003,0 0.007,0 0.01,0 z"
   style="clip-rule:evenodd;fill-rule:nonzero;stroke-linecap:round;stroke-linejoin:round"
   id="path74"
   transform="translate(-30.975,-61.439998)" /><path
   d="m 45.73,49.5 1.77,2.1"
   style="clip-rule:evenodd;fill:none;fill-rule:nonzero;stroke:#ffffff;stroke-width:1.54px;stroke-linecap:round;stroke-linejoin:round"
   id="path76"
   transform="translate(-30.975,-61.439998)" /><path
   d="m 12.52,44.64 c 0.757,0 1.38,0.623 1.38,1.38 0,0.757 -0.623,1.38 -1.38,1.38 -0.757,0 -1.38,-0.623 -1.38,-1.38 0,-0.007 0,-0.013 0,-0.02 0,-0.757 0.623,-1.38 1.38,-1.38 z"
   style="clip-rule:evenodd;fill-rule:nonzero;stroke-linecap:round;stroke-linejoin:round"
   id="path78"
   transform="translate(-30.975,-61.439998)" /><path
   d="m 6.61,48.17 1.76,2.1"
   style="clip-rule:evenodd;fill:none;fill-rule:nonzero;stroke:#ffffff;stroke-width:1.54px;stroke-linecap:round;stroke-linejoin:round"
   id="path80"
   transform="translate(-30.975,-61.439998)" /></g>
</svg>
