<?xml version="1.0" encoding="UTF-8" standalone="no"?>
<svg
   width="100%"
   height="100%"
   viewBox="0 0 16 16"
   version="1.1"
   xml:space="preserve"
   style="fill-rule:evenodd;clip-rule:evenodd;"
   id="svg1"
   sodipodi:docname="codes.merritt.FeelingFinder-symbolicDark.svg"
   inkscape:version="1.3.2 (091e20ef0f, 2023-11-25)"
   xmlns:inkscape="http://www.inkscape.org/namespaces/inkscape"
   xmlns:sodipodi="http://sodipodi.sourceforge.net/DTD/sodipodi-0.dtd"
   xmlns="http://www.w3.org/2000/svg"
   xmlns:svg="http://www.w3.org/2000/svg"
   xmlns:serif="http://www.serif.com/"><defs
   id="defs1" /><sodipodi:namedview
   id="namedview1"
   pagecolor="#505050"
   bordercolor="#eeeeee"
   borderopacity="1"
   inkscape:showpageshadow="0"
   inkscape:pageopacity="0"
   inkscape:pagecheckerboard="0"
   inkscape:deskcolor="#505050"
   inkscape:zoom="72.75"
   inkscape:cx="8"
   inkscape:cy="8"
   inkscape:window-width="2560"
   inkscape:window-height="1368"
   inkscape:window-x="0"
   inkscape:window-y="0"
   inkscape:window-maximized="1"
   inkscape:current-layer="svg1" />
    <g
   id="Icon-symbolic"
   transform="matrix(0.0683863,0,0,0.0683863,-9.5254852,-8.8870559)"
   style="clip-rule:evenodd;fill-rule:evenodd">
                <circle
   id="eye-right"
   serif:id="eye right"
   cx="303.85699"
   cy="205.151"
   r="18.297001"
   style="fill:#000000;fill-opacity:1" />
                
                <circle
   id="eye-left"
   serif:id="eye left"
   cx="208.847"
   cy="205.151"
   r="18.297001"
   style="fill:#000000;fill-opacity:1" />
                
                <path
   id="heart-shaped-face"
   d="m 214.963,298.021 c -22.558,-22.064 -42.76,-42.458 -44.892,-45.319 -24.962,-33.494 -10.2,-83.17 28.651,-96.415 16.213,-5.527 37.244,-1.403 51.321,10.063 l 5.752,4.685 5.19,-4.103 c 21.398,-16.914 49.085,-17.137 70.617,-0.569 13.665,10.515 23.102,29.786 23.161,47.299 0.044,13.267 -5.441,29.364 -13.808,40.521 -4.346,5.794 -42.835,43.958 -77.826,77.167 l -7.152,6.788 z"
   style="fill:none;fill-rule:nonzero;stroke:#000000;stroke-width:10px;stroke-opacity:1" />
                <path
   id="mouth"
   d="m 209.852,236.603 c 0,0 12.313,28.698 45.037,28.394 32.724,-0.304 46.281,-29.141 46.281,-29.141"
   style="fill:none;fill-rule:nonzero;stroke:#000000;stroke-width:8px;stroke-linecap:round;stroke-linejoin:round;stroke-opacity:1" />
            </g>
</svg>
