<?xml version="1.0" encoding="UTF-8" standalone="no"?>
<!DOCTYPE svg PUBLIC "-//W3C//DTD SVG 1.1//EN" "http://www.w3.org/Graphics/SVG/1.1/DTD/svg11.dtd">
<svg width="100%" height="100%" viewBox="0 0 128 128" version="1.1" xmlns="http://www.w3.org/2000/svg" xmlns:xlink="http://www.w3.org/1999/xlink" xml:space="preserve" xmlns:serif="http://www.serif.com/" style="fill-rule:evenodd;clip-rule:evenodd;stroke-linecap:round;">
    <g transform="matrix(1,0,0,1,-8,-16)">
        <g id="App-Icon" serif:id="App Icon" transform="matrix(1,0,0,1,8,-156)">
            <g id="template">
                <rect id="_0" serif:id="0" x="0" y="172" width="128" height="128" style="fill:rgb(240,240,240);fill-opacity:0;"/>
            </g>
            <g id="icons">
                <g id="g1064">
                </g>
                <g id="g1096">
                </g>
                <g id="g1138">
                </g>
                <g id="g1278">
                </g>
                <g id="g1365">
                </g>
                <g id="g1844">
                </g>
                <g id="g1331">
                </g>
                <g id="g2014">
                </g>
                <g id="g2185">
                </g>
            </g>
            <g id="g1648">
            </g>
            <g id="Icon" transform="matrix(0.250549,0,0,0.250549,-0.525371,163.752)">
                <path id="outer-bubble" serif:id="outer bubble" d="M226.795,418.929C210.034,400.334 189.734,389.242 155.915,375.388C147.465,371.927 137.167,367.161 133.032,364.797C117.627,355.992 105.227,340.201 100.738,323.672C95.239,292.287 98.632,256.343 98.694,224.033C98.791,173.178 99.274,134.997 99.782,128.533C102.247,97.157 135.306,71.5 157.28,71.5L356.28,71.5C384.279,71.5 409.399,95.627 413.442,123.543C415.17,135.477 415.28,135.056 415.28,222.5C415.28,326.521 415.672,320.384 408.028,336C401.283,349.779 383.589,364.552 365.002,371.924C346.688,379.358 329.482,388.993 312.28,398.532C295.429,407.736 279.992,422.176 271.624,439.5C262.712,457.949 264.011,490.554 258.03,491.75C253.153,492.725 259.227,454.911 226.795,418.929Z" style="fill:url(#_Linear1);fill-rule:nonzero;stroke:rgb(21,12,75);stroke-width:10px;"/>
                <circle id="eye-right" serif:id="eye right" cx="303.857" cy="205.151" r="18.297" style="fill:rgb(21,12,75);"/>
                <path id="eye-right-gleam" serif:id="eye right gleam" d="M295.911,198.298C297.229,197.086 300.101,195.297 302.294,194.32L306.28,192.545L303.046,192.211C301.267,192.026 298.584,192.466 297.083,193.188C293.631,194.848 289.779,200.5 289.784,203.898L289.788,206.5L291.651,203.5C292.676,201.85 294.593,199.509 295.911,198.298L295.911,198.298Z" style="fill:rgb(206,206,206);fill-rule:nonzero;"/>
                <circle id="eye-left" serif:id="eye left" cx="208.847" cy="205.151" r="18.297" style="fill:rgb(21,12,75);"/>
                <path id="eye-left-gleam" serif:id="eye left gleam" d="M204.118,196.87C206.297,195.292 209.25,193.97 210.68,193.932C213.225,193.866 213.234,193.842 211.096,192.809C205.109,189.915 196.759,195.768 196.803,202.827L196.826,206.5L198.491,203.12C199.406,201.261 201.939,198.449 204.118,196.87L204.118,196.87Z" style="fill:rgb(206,206,206);fill-rule:nonzero;"/>
                <path id="heart-shaped-face" d="M214.963,298.021C192.405,275.957 172.203,255.563 170.071,252.702C145.109,219.208 159.871,169.532 198.722,156.287C214.935,150.76 235.966,154.884 250.043,166.35L255.795,171.035L260.985,166.932C282.383,150.018 310.07,149.795 331.602,166.363C345.267,176.878 354.704,196.149 354.763,213.662C354.807,226.929 349.322,243.026 340.955,254.183C336.609,259.977 298.12,298.141 263.129,331.35L255.977,338.138L214.963,298.021Z" style="fill:none;fill-rule:nonzero;stroke:rgb(21,12,75);stroke-width:10px;stroke-linecap:butt;"/>
                <path id="mouth" d="M209.852,236.603C209.852,236.603 222.165,265.301 254.889,264.997C287.613,264.693 301.17,235.856 301.17,235.856" style="fill:none;fill-rule:nonzero;stroke:rgb(21,12,75);stroke-width:8px;stroke-linejoin:round;"/>
            </g>
            <g id="Icon-symbolic">
            </g>
        </g>
    </g>
    <defs>
        <linearGradient id="_Linear1" x1="0" y1="0" x2="1" y2="0" gradientUnits="userSpaceOnUse" gradientTransform="matrix(265.2,349.473,-349.473,265.2,129.424,71.8836)"><stop offset="0" style="stop-color:rgb(255,192,50);stop-opacity:1"/><stop offset="1" style="stop-color:rgb(255,55,188);stop-opacity:1"/></linearGradient>
    </defs>
</svg>
